<svg width="462" height="121" viewBox="0 0 462 121" fill="none" xmlns="http://www.w3.org/2000/svg">
<path d="M12 98C10.464 98 9.024 97.68 7.68 97.04C6.4 96.336 5.76 95.312 5.76 93.968V31.76C5.76 30.352 6.4 29.36 7.68 28.784C9.024 28.144 10.464 27.824 12 27.824C13.6 27.824 15.04 28.144 16.32 28.784C17.6 29.36 18.24 30.352 18.24 31.76V56.72H39.84V31.76C39.84 30.352 40.48 29.36 41.76 28.784C43.104 28.144 44.544 27.824 46.08 27.824C47.68 27.824 49.12 28.144 50.4 28.784C51.68 29.36 52.32 30.352 52.32 31.76V93.968C52.32 95.312 51.68 96.336 50.4 97.04C49.12 97.68 47.68 98 46.08 98C44.544 98 43.104 97.68 41.76 97.04C40.48 96.336 39.84 95.312 39.84 93.968V66.512H18.24V93.968C18.24 95.312 17.6 96.336 16.32 97.04C15.04 97.68 13.6 98 12 98ZM81.933 98.864C78.221 98.864 74.797 97.968 71.661 96.176C68.525 94.32 65.997 91.888 64.077 88.88C62.157 85.872 61.197 82.64 61.197 79.184V71.312C61.197 67.856 62.125 64.656 63.981 61.712C65.837 58.704 68.333 56.304 71.469 54.512C74.669 52.72 78.157 51.824 81.933 51.824C85.709 51.824 89.165 52.72 92.301 54.512C95.501 56.24 98.029 58.576 99.885 61.52C101.805 64.464 102.765 67.728 102.765 71.312V79.184C102.765 82.576 101.805 85.776 99.885 88.784C97.965 91.792 95.405 94.224 92.205 96.08C89.069 97.936 85.645 98.864 81.933 98.864ZM81.933 88.016C83.469 88.016 84.877 87.6 86.157 86.768C87.437 85.936 88.461 84.848 89.229 83.504C89.997 82.096 90.381 80.656 90.381 79.184V71.312C90.381 69.84 89.997 68.464 89.229 67.184C88.461 65.904 87.437 64.848 86.157 64.016C84.941 63.12 83.533 62.672 81.933 62.672C80.397 62.672 78.989 63.088 77.709 63.92C76.429 64.752 75.405 65.84 74.637 67.184C73.933 68.464 73.581 69.84 73.581 71.312V79.184C73.581 80.656 73.933 82.096 74.637 83.504C75.405 84.848 76.429 85.936 77.709 86.768C78.989 87.6 80.397 88.016 81.933 88.016ZM129.652 98.864C125.94 98.864 122.516 97.968 119.38 96.176C116.244 94.32 113.716 91.888 111.796 88.88C109.876 85.872 108.916 82.64 108.916 79.184V71.312C108.916 67.856 109.844 64.656 111.7 61.712C113.556 58.704 116.052 56.304 119.188 54.512C122.388 52.72 125.876 51.824 129.652 51.824C133.428 51.824 136.884 52.72 140.02 54.512C143.22 56.24 145.748 58.576 147.604 61.52C149.524 64.464 150.484 67.728 150.484 71.312V79.184C150.484 82.576 149.524 85.776 147.604 88.784C145.684 91.792 143.124 94.224 139.924 96.08C136.788 97.936 133.364 98.864 129.652 98.864ZM129.652 88.016C131.188 88.016 132.596 87.6 133.876 86.768C135.156 85.936 136.18 84.848 136.948 83.504C137.716 82.096 138.1 80.656 138.1 79.184V71.312C138.1 69.84 137.716 68.464 136.948 67.184C136.18 65.904 135.156 64.848 133.876 64.016C132.66 63.12 131.252 62.672 129.652 62.672C128.116 62.672 126.708 63.088 125.428 63.92C124.148 64.752 123.124 65.84 122.356 67.184C121.652 68.464 121.3 69.84 121.3 71.312V79.184C121.3 80.656 121.652 82.096 122.356 83.504C123.124 84.848 124.148 85.936 125.428 86.768C126.708 87.6 128.116 88.016 129.652 88.016ZM164.507 98C162.779 98 161.339 97.584 160.187 96.752C159.035 95.92 158.459 94.992 158.459 93.968V29.648C158.459 28.496 159.035 27.568 160.187 26.864C161.339 26.16 162.779 25.808 164.507 25.808C166.299 25.808 167.803 26.16 169.019 26.864C170.235 27.568 170.843 28.496 170.843 29.648V69.872L188.987 52.88C189.627 52.24 190.427 51.92 191.387 51.92C192.347 51.92 193.275 52.24 194.171 52.88C195.131 53.456 195.899 54.192 196.475 55.088C197.115 55.984 197.435 56.912 197.435 57.872C197.435 58.256 197.339 58.672 197.147 59.12C197.019 59.504 196.763 59.856 196.379 60.176L185.051 70.448L199.259 90.608C199.707 91.312 199.931 91.984 199.931 92.624C199.931 93.584 199.547 94.544 198.779 95.504C198.011 96.464 197.083 97.264 195.995 97.904C194.907 98.48 193.851 98.768 192.827 98.768C191.547 98.768 190.523 98.224 189.755 97.136L176.891 78.128L170.843 83.504V93.968C170.843 94.992 170.235 95.92 169.019 96.752C167.803 97.584 166.299 98 164.507 98ZM211.85 119.216C210.122 119.216 208.682 118.8 207.53 117.968C206.378 117.136 205.802 116.24 205.802 115.28V56.24C205.802 55.088 206.378 54.16 207.53 53.456C208.682 52.752 210.09 52.4 211.754 52.4C213.418 52.4 214.762 52.752 215.786 53.456C216.874 54.16 217.418 55.088 217.418 56.24V59.12C218.506 57.264 220.17 55.6 222.41 54.128C224.65 52.592 227.306 51.824 230.378 51.824C233.642 51.824 236.554 52.72 239.114 54.512C241.738 56.24 243.786 58.576 245.258 61.52C246.794 64.464 247.562 67.728 247.562 71.312V79.184C247.562 82.576 246.794 85.776 245.258 88.784C243.722 91.792 241.674 94.224 239.114 96.08C236.618 97.936 233.834 98.864 230.762 98.864C227.946 98.864 225.386 98.096 223.082 96.56C220.778 95.024 219.146 93.264 218.186 91.28V115.28C218.186 116.24 217.578 117.136 216.362 117.968C215.146 118.8 213.642 119.216 211.85 119.216ZM226.73 88.016C228.266 88.016 229.642 87.6 230.858 86.768C232.138 85.872 233.162 84.752 233.93 83.408C234.762 82.064 235.178 80.656 235.178 79.184V71.312C235.178 69.84 234.794 68.464 234.026 67.184C233.258 65.904 232.202 64.848 230.858 64.016C229.578 63.12 228.138 62.672 226.538 62.672C225.13 62.672 223.786 63.024 222.506 63.728C221.29 64.432 220.266 65.424 219.434 66.704C218.602 67.984 218.186 69.52 218.186 71.312V80.912C218.186 81.552 218.538 82.448 219.242 83.6C220.01 84.688 221.034 85.712 222.314 86.672C223.594 87.568 225.066 88.016 226.73 88.016ZM276.992 98.864C272.448 98.864 268.416 98.064 264.896 96.464C261.44 94.8 258.72 92.496 256.736 89.552C254.752 86.544 253.76 83.088 253.76 79.184V71.024C253.76 67.568 254.688 64.4 256.544 61.52C258.464 58.576 260.992 56.24 264.128 54.512C267.328 52.72 270.88 51.824 274.784 51.824C278.368 51.824 281.632 52.592 284.576 54.128C287.584 55.664 290.016 57.776 291.872 60.464C293.728 63.152 294.656 66.288 294.656 69.872C294.656 72.624 294.208 74.608 293.312 75.824C292.416 76.976 291.264 77.712 289.856 78.032C288.512 78.288 287.104 78.416 285.632 78.416H266.144V79.856C266.144 82.608 267.168 84.848 269.216 86.576C271.328 88.24 274.048 89.072 277.376 89.072C279.488 89.072 281.248 88.752 282.656 88.112C284.064 87.472 285.28 86.864 286.304 86.288C287.328 85.712 288.288 85.424 289.184 85.424C290.144 85.424 290.976 85.744 291.68 86.384C292.384 87.024 292.928 87.792 293.312 88.688C293.696 89.52 293.888 90.256 293.888 90.896C293.888 91.984 293.184 93.168 291.776 94.448C290.432 95.664 288.48 96.72 285.92 97.616C283.424 98.448 280.448 98.864 276.992 98.864ZM266.144 71.12H280.16C281.248 71.12 281.984 70.96 282.368 70.64C282.816 70.256 283.04 69.552 283.04 68.528C283.04 67.056 282.624 65.744 281.792 64.592C281.024 63.44 280 62.544 278.72 61.904C277.504 61.264 276.128 60.944 274.592 60.944C273.12 60.944 271.744 61.264 270.464 61.904C269.184 62.48 268.128 63.344 267.296 64.496C266.528 65.584 266.144 66.896 266.144 68.432V71.12ZM317.249 98.864C314.241 98.864 311.457 97.936 308.897 96.08C306.337 94.224 304.289 91.792 302.753 88.784C301.217 85.776 300.449 82.576 300.449 79.184V71.312C300.449 67.728 301.217 64.464 302.753 61.52C304.289 58.576 306.337 56.24 308.897 54.512C311.457 52.72 314.305 51.824 317.441 51.824C320.449 51.824 323.009 52.592 325.121 54.128C327.233 55.6 328.801 57.264 329.825 59.12V29.648C329.825 28.496 330.433 27.568 331.649 26.864C332.865 26.16 334.369 25.808 336.161 25.808C337.889 25.808 339.329 26.16 340.481 26.864C341.633 27.568 342.209 28.496 342.209 29.648V93.968C342.209 94.992 341.633 95.92 340.481 96.752C339.329 97.584 337.889 98 336.161 98C334.625 98 333.313 97.584 332.225 96.752C331.137 95.92 330.593 94.992 330.593 93.968V91.28C329.633 93.264 327.905 95.024 325.409 96.56C322.977 98.096 320.257 98.864 317.249 98.864ZM321.185 88.016C322.849 88.016 324.321 87.568 325.601 86.672C326.881 85.712 327.905 84.688 328.673 83.6C329.441 82.448 329.825 81.552 329.825 80.912V71.312C329.825 69.52 329.377 67.984 328.481 66.704C327.649 65.424 326.561 64.432 325.217 63.728C323.937 63.024 322.625 62.672 321.281 62.672C319.745 62.672 318.305 63.12 316.961 64.016C315.681 64.848 314.657 65.904 313.889 67.184C313.185 68.464 312.833 69.84 312.833 71.312V79.184C312.833 80.656 313.185 82.064 313.889 83.408C314.657 84.752 315.681 85.872 316.961 86.768C318.241 87.6 319.649 88.016 321.185 88.016ZM358.007 42.224C356.151 42.224 354.551 41.616 353.207 40.4C351.863 39.12 351.191 37.712 351.191 36.176C351.191 34.512 351.863 33.104 353.207 31.952C354.551 30.736 356.151 30.128 358.007 30.128C359.927 30.128 361.527 30.736 362.807 31.952C364.087 33.104 364.727 34.512 364.727 36.176C364.727 37.712 364.087 39.12 362.807 40.4C361.527 41.616 359.927 42.224 358.007 42.224ZM358.007 98C356.215 98 354.743 97.584 353.591 96.752C352.439 95.92 351.863 94.992 351.863 93.968V56.24C351.863 55.088 352.439 54.16 353.591 53.456C354.743 52.752 356.215 52.4 358.007 52.4C359.735 52.4 361.207 52.752 362.423 53.456C363.639 54.16 364.247 55.088 364.247 56.24V93.968C364.247 94.992 363.639 95.92 362.423 96.752C361.207 97.584 359.735 98 358.007 98ZM383.498 98.864C380.106 98.864 377.162 97.84 374.666 95.792C372.234 93.68 371.018 90.448 371.018 86.096C371.018 82.448 371.946 79.6 373.802 77.552C375.722 75.504 378.346 74.064 381.674 73.232C385.066 72.4 388.97 71.984 393.386 71.984H397.322V70.736C397.322 69.328 397.034 67.952 396.458 66.608C395.946 65.264 395.082 64.144 393.866 63.248C392.714 62.352 391.05 61.904 388.874 61.904C386.442 61.904 384.554 62.16 383.21 62.672C381.93 63.12 380.938 63.6 380.234 64.112C379.53 64.624 378.762 64.88 377.93 64.88C376.586 64.88 375.53 64.208 374.762 62.864C374.058 61.52 373.706 60.144 373.706 58.736C373.706 57.392 374.506 56.208 376.106 55.184C377.77 54.096 379.786 53.264 382.154 52.688C384.522 52.112 386.826 51.824 389.066 51.824C394.058 51.824 398.058 52.72 401.066 54.512C404.074 56.304 406.25 58.608 407.594 61.424C409.002 64.24 409.706 67.28 409.706 70.544V93.968C409.706 95.12 409.13 96.08 407.978 96.848C406.826 97.616 405.386 98 403.658 98C402.058 98 400.714 97.616 399.626 96.848C398.602 96.08 398.09 95.12 398.09 93.968V91.28C396.362 93.264 394.314 95.024 391.946 96.56C389.642 98.096 386.826 98.864 383.498 98.864ZM388.49 89.648C389.834 89.648 391.178 89.2 392.522 88.304C393.866 87.408 394.986 86.256 395.882 84.848C396.842 83.44 397.322 81.968 397.322 80.432V78.416H395.882C393.77 78.416 391.754 78.544 389.834 78.8C387.914 79.056 386.346 79.632 385.13 80.528C383.978 81.36 383.402 82.672 383.402 84.464C383.402 86.256 383.882 87.568 384.842 88.4C385.866 89.232 387.082 89.648 388.49 89.648Z" fill="white"/>
<path d="M443.351 75.765C445.403 81.2784 442.702 85.8189 443.351 97.8187C456.648 87.4405 463.135 78.6838 461.837 66.0354C460.54 59.2247 454.378 53.0626 446.27 39.4411L439.459 25.1711C420.973 54.6842 438.162 61.8192 443.351 75.765Z" fill="white"/>
<path d="M415.715 34.0899C417.007 37.5358 415.307 40.3736 415.715 47.8735C424.089 41.3871 428.174 35.9142 427.357 28.0089C426.54 23.7522 422.659 19.9009 417.553 11.3875L413.265 2.46871C401.623 20.9144 412.448 25.3738 415.715 34.0899Z" fill="white"/>
</svg>
